<svg xmlns="http://www.w3.org/2000/svg" width="580" height="140" viewBox="0 0 580 140" role="img" aria-labelledby="title desc">
  <title id="title">DevCD wordmark</title>
  <desc id="desc">DevCD daemon mascot + pixel wordmark — local-first agent continuity.</desc>
  <defs>
    <rect id="px" width="12" height="12" rx="1.5" fill="currentColor"/>
    <g id="devcd-pixels">
      <use href="#px" x="0" y="0"/><use href="#px" x="14" y="0"/><use href="#px" x="28" y="0"/><use href="#px" x="42" y="0"/>
      <use href="#px" x="0" y="14"/><use href="#px" x="56" y="14"/><use href="#px" x="0" y="28"/><use href="#px" x="56" y="28"/><use href="#px" x="0" y="42"/><use href="#px" x="56" y="42"/><use href="#px" x="0" y="56"/><use href="#px" x="56" y="56"/><use href="#px" x="0" y="70"/><use href="#px" x="56" y="70"/>
      <use href="#px" x="0" y="84"/><use href="#px" x="14" y="84"/><use href="#px" x="28" y="84"/><use href="#px" x="42" y="84"/>
      <use href="#px" x="88" y="0"/><use href="#px" x="102" y="0"/><use href="#px" x="116" y="0"/><use href="#px" x="130" y="0"/><use href="#px" x="144" y="0"/>
      <use href="#px" x="88" y="14"/><use href="#px" x="88" y="28"/><use href="#px" x="88" y="42"/><use href="#px" x="102" y="42"/><use href="#px" x="116" y="42"/><use href="#px" x="130" y="42"/>
      <use href="#px" x="88" y="56"/><use href="#px" x="88" y="70"/><use href="#px" x="88" y="84"/><use href="#px" x="102" y="84"/><use href="#px" x="116" y="84"/><use href="#px" x="130" y="84"/><use href="#px" x="144" y="84"/>
      <use href="#px" x="176" y="0"/><use href="#px" x="232" y="0"/><use href="#px" x="176" y="14"/><use href="#px" x="232" y="14"/><use href="#px" x="176" y="28"/><use href="#px" x="232" y="28"/><use href="#px" x="176" y="42"/><use href="#px" x="232" y="42"/>
      <use href="#px" x="190" y="56"/><use href="#px" x="218" y="56"/><use href="#px" x="190" y="70"/><use href="#px" x="218" y="70"/><use href="#px" x="204" y="84"/>
      <use href="#px" x="276" y="0"/><use href="#px" x="290" y="0"/><use href="#px" x="304" y="0"/><use href="#px" x="318" y="0"/>
      <use href="#px" x="262" y="14"/><use href="#px" x="262" y="28"/><use href="#px" x="262" y="42"/><use href="#px" x="262" y="56"/><use href="#px" x="262" y="70"/>
      <use href="#px" x="276" y="84"/><use href="#px" x="290" y="84"/><use href="#px" x="304" y="84"/><use href="#px" x="318" y="84"/>
      <use href="#px" x="348" y="0"/><use href="#px" x="362" y="0"/><use href="#px" x="376" y="0"/><use href="#px" x="390" y="0"/>
      <use href="#px" x="348" y="14"/><use href="#px" x="404" y="14"/><use href="#px" x="348" y="28"/><use href="#px" x="404" y="28"/><use href="#px" x="348" y="42"/><use href="#px" x="404" y="42"/><use href="#px" x="348" y="56"/><use href="#px" x="404" y="56"/><use href="#px" x="348" y="70"/><use href="#px" x="404" y="70"/>
      <use href="#px" x="348" y="84"/><use href="#px" x="362" y="84"/><use href="#px" x="376" y="84"/><use href="#px" x="390" y="84"/>
    </g>

    <!-- Mascot depth effects -->
    <radialGradient id="mascot-body-shade" cx="42%" cy="26%" r="78%">
      <stop offset="0%" stop-color="#fff0bf"/>
      <stop offset="56%" stop-color="#f7c948"/>
      <stop offset="100%" stop-color="#c97821"/>
    </radialGradient>
    <filter id="mascot-soft-shadow" x="-35%" y="-35%" width="170%" height="200%">
      <feGaussianBlur in="SourceAlpha" stdDeviation="6" result="halo-blur"/>
      <feFlood flood-color="#f7c948" flood-opacity="0.24" result="halo-color"/>
      <feComposite in="halo-color" in2="halo-blur" operator="in" result="halo"/>
      <feGaussianBlur in="SourceAlpha" stdDeviation="4.5" result="blur"/>
      <feOffset dx="0" dy="4" result="offset"/>
      <feFlood flood-color="#06080c" flood-opacity="0.38" result="color"/>
      <feComposite in="color" in2="offset" operator="in" result="shadow"/>
      <feMerge>
        <feMergeNode in="halo"/>
        <feMergeNode in="shadow"/>
        <feMergeNode in="SourceGraphic"/>
      </feMerge>
    </filter>
    <radialGradient id="eye-core-glow" cx="38%" cy="34%" r="70%">
      <stop offset="0%" stop-color="#68ead8"/>
      <stop offset="100%" stop-color="#18b7a6"/>
    </radialGradient>
  </defs>

  <!-- Grounded mascot shadow -->
  <ellipse cx="59" cy="124" rx="45" ry="9" fill="#05070a" opacity="0.20"/>

  <!-- Daemon mascot left side.
       Local daemon coords: body x 60-240 (180px), y 30-258 (228px incl. horns).
       Scale 0.50 -> 90x114. Centered vertically in 140: top margin = (140-114)/2 = 13.
       tx = 10 - 60*0.50 = -20
       ty = 13 - 30*0.50 = -2
  -->
  <g transform="translate(-20,-2) scale(0.50)" filter="url(#mascot-soft-shadow)">
    <!-- Shadow -->
    <path d="M 60,258 L 60,170 C 60,90 90,55 150,55 C 210,55 240,90 240,170 L 240,258 Z"
          fill="#6b3310" transform="translate(7 9)" opacity="0.48"/>
    <!-- Body -->
    <path d="M 60,258 L 60,170 C 60,90 90,55 150,55 C 210,55 240,90 240,170 L 240,258 Z"
          fill="url(#mascot-body-shade)"/>
    <!-- Horns -->
    <path d="M 100,68 L 90,30 L 116,60" fill="url(#mascot-body-shade)"/>
    <path d="M 200,68 L 210,30 L 184,60" fill="url(#mascot-body-shade)"/>
    <!-- Top rim highlight -->
    <path d="M 74,160 C 80,92 105,66 150,64 C 195,66 220,92 226,160"
          fill="none" stroke="#ffe9a9" stroke-width="6" stroke-linecap="round" opacity="0.28"/>
    <!-- Belly depth shadow -->
    <path d="M 84,236 C 110,255 190,255 216,236 L 216,258 L 84,258 Z"
          fill="#b46f1e" opacity="0.24"/>
    <!-- Left eye -->
    <circle cx="120" cy="182" r="21" fill="#080a0f"/>
    <circle cx="128" cy="175" r="9"  fill="url(#eye-core-glow)"/>
    <circle cx="124" cy="170" r="2.8" fill="#d7fff6" opacity="0.86"/>
    <!-- Right eye -->
    <circle cx="180" cy="182" r="21" fill="#080a0f"/>
    <circle cx="188" cy="175" r="9"  fill="url(#eye-core-glow)"/>
    <circle cx="184" cy="170" r="2.8" fill="#d7fff6" opacity="0.86"/>
    <!-- Smirk -->
    <path d="M 132,224 Q 151,242 168,222"
          fill="none" stroke="#080a0f" stroke-width="6" stroke-linecap="round"/>
    <!-- Smirk highlight for livelier expression -->
    <path d="M 136,220 Q 150,232 164,220"
          fill="none" stroke="#ffd66e" stroke-width="2.4" stroke-linecap="round" opacity="0.42"/>
  </g>

  <!-- Pixel wordmark at x=120, y=22 (pixels are 416x96, bottom at y=118) -->
  <use href="#devcd-pixels" x="120" y="22" color="#080a0f" transform="translate(8 10)" opacity="0.95"/>
  <use href="#devcd-pixels" x="120" y="22" color="#9b5419" transform="translate(4 6)" opacity="0.95"/>
  <use href="#devcd-pixels" x="120" y="22" color="#f7c948"/>

  <!-- Teal underline (x=120 to x=536, y=124) -->
  <path d="M120 124h416" stroke="#18b7a6" stroke-width="7" stroke-linecap="square"/>
  <path d="M546 124h18"  stroke="#18b7a6" stroke-width="7" stroke-linecap="square" opacity="0.55"/>
</svg>
